<?xml version="1.0" encoding="utf-8"?>
<!-- Generator: Adobe Illustrator 19.0.0, SVG Export Plug-In . SVG Version: 6.00 Build 0)  -->
<svg version="1.1" id="Layer_1" xmlns="http://www.w3.org/2000/svg" xmlns:xlink="http://www.w3.org/1999/xlink" x="0px" y="0px"
	 viewBox="0 0 500 500" style="enable-background:new 0 0 500 500;" xml:space="preserve">
<style type="text/css">
	.st0{fill:#4987CE;}
</style>
<path class="st0" d="M250,425c-1.7,0-3.5,0-5.2-0.1l35.8-98.3h49.2c8.6,0,18.1-6.6,21.1-14.8l38.8-106.6
	c6.3-17.4-3.6-31.7-22.2-31.7h-68.3L241.9,331h0l-32.5,89.2C132.3,401.9,75,332.7,75,250c0-80.3,54.1-147.9,127.8-168.5l-33.5,92.1
	h0l-55.7,153.1l37.1,0L198,196.6h27.9l-47.4,130.1l37.1,0l44.2-121.3c6.4-17.4-3.6-31.7-22.2-31.7h-31.2l35.8-98.4
	c2.6-0.1,5.2-0.2,7.9-0.2c96.7,0,175,78.3,175,175C425,346.6,346.7,425,250,425z M355.9,196.5H328l-39,107.1h27.9L355.9,196.5z"/>
</svg>
